<svg xmlns="http://www.w3.org/2000/svg" xmlns:xlink="http://www.w3.org/1999/xlink" width="211" height="52" viewBox="0 0 211 52">
    <defs>
        <path id="4j19ocmq2a" d="M0.603 0.577L20.91 0.577 20.91 24.472 0.603 24.472z"/>
        <path id="xvh6st7rac" d="M4.082 4.144C1.65 6.589.432 9.534.432 12.984c0 3.448 1.217 6.389 3.65 8.822 2.444 2.444 5.39 3.665 8.839 3.665 3.449 0 6.39-1.22 8.825-3.665 2.442-2.433 3.664-5.374 3.664-8.823 0-3.45-1.222-6.394-3.664-8.839C19.31 1.71 16.37.494 12.92.494c-3.449 0-6.395 1.216-8.839 3.65"/>
        <path id="glhe4dcptf" d="M0.003 0.56L210.51 0.56 210.51 11.199 0.003 11.199z"/>
        <radialGradient id="ju0yhuscqd" cx="65.688%" cy="30.192%" r="69.132%" fx="65.688%" fy="30.192%">
            <stop offset="0%" stop-color="#DD5B2E"/>
            <stop offset="100%" stop-color="#FEFEFE"/>
        </radialGradient>
    </defs>
    <g fill="none" fill-rule="evenodd">
        <g>
            <path fill="#020302" d="M12.249 6.79c-.603-2.343-1.598-4.65-4.935-4.65-2.77 0-3.728 2.023-3.728 3.87 0 2.45 1.562 3.692 4.51 5.219 4.26 2.201 6.106 3.834 6.106 7.207 0 3.728-3.232 6.569-7.81 6.569-2.131 0-3.978-.604-5.434-1.172-.284-.994-.71-3.409-.958-5.326l1.1-.284c.71 2.379 2.273 5.467 5.966 5.467 2.556 0 4.118-1.775 4.118-4.082 0-2.734-1.455-3.834-4.58-5.54C2.876 12.047.782 10.343.782 7.04.782 3.88 3.409.897 8.095.897c1.988 0 3.941.533 4.687.674.141 1.279.284 2.699.568 5.007l-1.101.212zM39.23 18.79c-.498 1.705-1.42 4.262-1.954 5.362-1.028.213-3.798.852-6.496.852-8.486 0-12.817-5.645-12.817-11.858 0-7.243 5.503-12.25 13.456-12.25 3.053 0 5.54.64 6.71.817.142 1.598.39 3.728.675 5.503l-1.101.25c-.71-2.38-1.563-3.836-3.373-4.58-.922-.427-2.378-.676-3.727-.676-5.859 0-8.947 4.332-8.947 10.19 0 6.852 3.55 11.255 9.301 11.255 3.622 0 5.397-1.669 7.208-5.22l1.065.356zM67.346 2.388c-2.948.284-3.232.461-3.232 3.443V20.07c0 2.982.32 3.089 3.232 3.408v.994H57.83v-.994c2.947-.354 3.232-.426 3.232-3.408v-7.1H48.918v7.1c0 2.946.284 3.054 3.196 3.408v.994h-9.48v-.994c2.876-.32 3.196-.426 3.196-3.408V5.831c0-2.982-.32-3.159-3.196-3.443v-.994h9.48v.994c-2.84.248-3.196.497-3.196 3.443v5.646h12.144V5.831c0-2.946-.392-3.195-3.232-3.443v-.994h9.516v.994zM107.35.897c6.071 0 11.504 4.65 11.504 11.717 0 7.633-5.185 12.39-11.718 12.39-6.816 0-11.787-5.183-11.787-11.858 0-6.356 4.51-12.25 12.002-12.25m-.712 1.314c-3.975 0-7.596 3.338-7.596 9.977 0 6.604 3.62 11.468 8.661 11.468 4.296 0 7.528-3.195 7.528-10.048 0-7.455-3.94-11.397-8.593-11.397M140.116 18.578c-.212 1.1-1.278 4.794-1.632 5.894h-16.51v-.995c3.23-.319 3.515-.497 3.515-3.514V5.868c0-3.019-.356-3.196-3.195-3.48v-.994h9.514v.994c-2.84.284-3.23.426-3.23 3.48v14.45c0 2.166.284 2.662 2.307 2.698.035 0 2.593.036 2.805.036 1.81 0 2.343-.213 3.16-1.101.888-.923 1.634-2.343 2.166-3.657l1.1.284zM166.99 2.388c-2.273.248-3.017.603-3.124 2.237-.035 1.136-.107 2.627-.107 5.929V24.79h-1.35L147.216 6.223v8.876c0 3.195.105 4.792.176 5.822.07 1.811.959 2.343 3.516 2.556v.994h-8.628v-.994c2.201-.178 3.053-.71 3.196-2.45.105-1.136.177-2.733.177-5.964V6.01c0-.995-.072-1.563-.71-2.343-.674-.888-1.42-1.102-3.16-1.279v-.994h5.326l15.053 17.858v-8.698c0-3.302-.07-4.828-.177-5.894-.107-1.597-.923-2.095-3.764-2.272v-.994h8.77v.994zM188.253 18.827c-.213.922-1.172 4.58-1.527 5.645H169.47v-.995c3.302-.249 3.55-.567 3.55-3.479V5.974c0-3.16-.39-3.338-3.053-3.586v-.994h10.864c3.338 0 4.723-.036 5.15-.071.034.888.176 3.55.318 5.432l-1.065.178c-.32-1.207-.675-1.953-1.065-2.699-.568-1.171-1.385-1.42-3.515-1.42h-3.372c-1.101 0-1.172.107-1.172 1.136v7.846h3.94c2.663 0 2.841-.532 3.267-2.946h1.1v7.314h-1.1c-.462-2.557-.746-2.912-3.302-2.912h-3.905v7.066c0 2.485.78 2.698 2.556 2.734h3.302c2.166 0 2.52-.32 3.303-1.244.674-.744 1.419-2.2 1.916-3.266l1.065.285z" transform="translate(0 .223)"/>
            <g transform="translate(0 .223) translate(189.6)">
                <mask id="lcnc67muhb" fill="#fff">
                    <use xlink:href="#4j19ocmq2a"/>
                </mask>
                <path fill="#020302" d="M19.846 6.968C19.528 5.832 19.1 4.66 18.71 4.02c-.568-.959-.921-1.207-2.875-1.207h-3.551v17.29c0 2.77.284 3.16 3.657 3.373v.995H5.608v-.995c3.303-.212 3.588-.568 3.588-3.372V2.815H5.964c-1.953 0-2.521.212-3.124 1.277-.426.71-.71 1.562-1.172 2.876H.603c.213-2.166.426-4.403.533-6.391h.816c.532.852.923.817 1.916.817H17.93c.994 0 1.278-.142 1.81-.817h.854c0 1.668.141 4.225.318 6.284l-1.065.107z" mask="url(#lcnc67muhb)"/>
            </g>
            <path fill="#6D6E71" d="M80.354 29.725c2.992 0 5.703.281 7.666.842 1.963.56 3.085 1.214 3.085 2.056 0 .748-1.122 1.495-3.085 1.962-1.963.562-4.674.843-7.76.843-3.084 0-5.795-.281-7.851-.843-2.057-.56-3.272-1.214-3.272-2.055 0-.842 1.309-1.59 3.365-2.057 2.056-.467 4.861-.841 7.852-.748" transform="translate(0 .223)"/>
        </g>
        <g transform="translate(67.2 1.023)">
            <mask id="5wyuyxwgte" fill="#fff">
                <use xlink:href="#xvh6st7rac"/>
            </mask>
            <path fill="url(#ju0yhuscqd)" d="M4.082 4.144C1.65 6.589.432 9.534.432 12.984c0 3.448 1.217 6.389 3.65 8.822 2.444 2.444 5.39 3.665 8.839 3.665 3.449 0 6.39-1.22 8.825-3.665 2.442-2.433 3.664-5.374 3.664-8.823 0-3.45-1.222-6.394-3.664-8.839C19.31 1.71 16.37.494 12.92.494c-3.449 0-6.395 1.216-8.839 3.65" mask="url(#5wyuyxwgte)"/>
        </g>
        <g transform="translate(0 40)">
            <mask id="v0w3hqd5lg" fill="#fff">
                <use xlink:href="#glhe4dcptf"/>
            </mask>
            <path fill="#231F20" d="M.003.68v10.416H5.01V9.99H1.363V.68H.003zM17.145.662H11.54v10.433h5.605V9.974H12.9V6.388h3.796V5.266H12.9V1.785h4.245V.663zm14.137 10.433h1.435L28.966.739h-1.57L23.63 11.096h1.435l.837-2.317h4.543l.837 2.317zm-1.225-3.422H26.29l1.884-5.261 1.883 5.26zm14.959-3.93c0 1.165-.673 2.002-2.212 2.002h-2.002V1.799h2.002c1.554 0 2.212.763 2.212 1.944zM39.442.678v10.417h1.36v-4.26h1.644l2.48 4.26h1.63L43.94 6.731c1.749-.388 2.48-1.658 2.48-2.988C46.42 2.04 45.256.68 42.805.68h-3.362zM60.438.663v8.28l-5.47-8.28h-1.36v10.433h1.36V2.801l5.47 8.295h1.36V.663h-1.36zm8.758 10.433h1.36V.679h-1.36v10.417zM84.783.663v8.28l-5.47-8.28h-1.36v10.433h1.36V2.801l5.47 8.295h1.36V.663h-1.36zM98.263.56c-2.93 0-5.231 2.197-5.231 5.32 0 3.122 2.302 5.306 5.231 5.306 2.824 0 4.872-2.078 5.111-4.664V5.477H97.77v1.105h4.154c-.209 2.063-1.614 3.378-3.66 3.378-2.198 0-3.842-1.584-3.842-4.08 0-2.511 1.644-4.095 3.841-4.095 1.464 0 2.6.702 3.168 1.913h1.629c-.777-2.003-2.6-3.138-4.797-3.138zm21.057 10.536h1.36V6.402h3.676V5.296h-3.676V1.785h4.528V.679h-5.888v10.417zm22.566-5.216c0-3.123-2.286-5.32-5.23-5.32-2.93 0-5.231 2.197-5.231 5.32 0 3.122 2.301 5.32 5.23 5.32 2.945 0 5.231-2.198 5.231-5.32zm-9.07 0c0-2.555 1.643-4.14 3.84-4.14s3.84 1.585 3.84 4.14c0 2.54-1.643 4.14-3.84 4.14s-3.84-1.6-3.84-4.14zm21.52-2.137c0 1.166-.674 2.003-2.213 2.003h-2.002V1.799h2.002c1.555 0 2.212.763 2.212 1.944zM148.76.68v10.417h1.36v-4.26h1.644l2.48 4.26h1.63l-2.616-4.365c1.748-.388 2.48-1.658 2.48-2.988 0-1.704-1.165-3.064-3.616-3.064h-3.362zm23.238 0v10.417h5.007V9.99h-3.647V.68H172zm11.538 10.417h1.36V.679h-1.36v10.417zm8.757 0h1.36V6.402h3.676V5.296h-3.676V1.785h4.528V.679h-5.888v10.417zM210.51.663h-5.604v10.433h5.604V9.974h-4.244V6.388h3.796V5.266h-3.796V1.785h4.244V.663z" mask="url(#v0w3hqd5lg)"/>
        </g>
    </g>
</svg>
